<svg width="41" height="33" viewBox="0 0 41 33" fill="none" xmlns="http://www.w3.org/2000/svg">
<path d="M33.75 27.75H10.125C8.57812 27.75 7.24219 27.2578 6.11719 26.1328C4.99219 25.0078 4.5 23.6719 4.5 22.125V7.5H3.375C2.39062 7.5 1.61719 7.85156 0.984375 8.48438C0.28125 9.1875 0 9.96094 0 10.875V28.875C0 29.8594 0.28125 30.6328 0.984375 31.2656C1.61719 31.9688 2.39062 32.25 3.375 32.25H30.375C31.2891 32.25 32.0625 31.9688 32.7656 31.2656C33.3984 30.6328 33.75 29.8594 33.75 28.875V27.75ZM40.5 22.125C40.5 23.1094 40.1484 23.8828 39.5156 24.5156C38.8125 25.2188 38.0391 25.5 37.125 25.5H10.125C9.14062 25.5 8.36719 25.2188 7.73438 24.5156C7.03125 23.8828 6.75 23.1094 6.75 22.125V4.125C6.75 3.21094 7.03125 2.4375 7.73438 1.73438C8.36719 1.10156 9.14062 0.75 10.125 0.75H37.125C38.0391 0.75 38.8125 1.10156 39.5156 1.73438C40.1484 2.4375 40.5 3.21094 40.5 4.125V22.125ZM18 7.5C18 6.58594 17.6484 5.8125 17.0156 5.10938C16.3125 4.47656 15.5391 4.125 14.625 4.125C13.6406 4.125 12.8672 4.47656 12.2344 5.10938C11.5312 5.8125 11.25 6.58594 11.25 7.5C11.25 8.48438 11.5312 9.25781 12.2344 9.89062C12.8672 10.5938 13.6406 10.875 14.625 10.875C15.5391 10.875 16.3125 10.5938 17.0156 9.89062C17.6484 9.25781 18 8.48438 18 7.5ZM11.25 17.625V21H36V13.125L29.8125 6.9375C29.6719 6.79688 29.4609 6.72656 29.25 6.72656C28.9688 6.72656 28.8281 6.79688 28.6875 6.9375L19.125 16.5L16.3125 13.6875C16.1719 13.5469 15.9609 13.4766 15.75 13.4766C15.4688 13.4766 15.3281 13.5469 15.1875 13.6875L11.25 17.625Z" fill="white"/>
</svg>
