<svg width="36" height="37" viewBox="0 0 36 37" fill="none" xmlns="http://www.w3.org/2000/svg">
<path d="M0 18.2188C0 19.2031 0.28125 19.9766 0.984375 20.6094L15.8906 35.5156C16.5234 36.2188 17.2969 36.5 18.2812 36.5C19.1953 36.5 19.9688 36.2188 20.6719 35.5156L35.0156 21.1719C35.6484 20.5391 36 19.7656 36 18.7812C36 17.8672 35.6484 17.0938 35.0156 16.3906L20.1094 1.48438C19.4062 0.851562 18.6328 0.5 17.7188 0.5H3.375C2.39062 0.5 1.61719 0.851562 0.984375 1.48438C0.28125 2.1875 0 2.96094 0 3.875V18.2188ZM7.875 5C8.78906 5 9.5625 5.35156 10.2656 5.98438C10.8984 6.6875 11.25 7.46094 11.25 8.375C11.25 9.35938 10.8984 10.1328 10.2656 10.7656C9.5625 11.4688 8.78906 11.75 7.875 11.75C6.89062 11.75 6.11719 11.4688 5.48438 10.7656C4.78125 10.1328 4.5 9.35938 4.5 8.375C4.5 7.46094 4.78125 6.6875 5.48438 5.98438C6.11719 5.35156 6.89062 5 7.875 5Z" fill="white"/>
</svg>
