<svg width="36" height="33" viewBox="0 0 36 33" fill="none" xmlns="http://www.w3.org/2000/svg">
<path d="M32.4141 7.5C33.3984 7.5 34.2422 7.85156 34.9453 8.48438C35.6484 9.1875 36 9.96094 36 10.875V28.875C36 29.8594 35.6484 30.6328 34.9453 31.2656C34.2422 31.9688 33.3984 32.25 32.4141 32.25H4.5C3.23438 32.25 2.10938 31.8281 1.26562 30.9844C0.421875 30.1406 0 29.0156 0 27.75V5.25C0 3.98438 0.421875 2.92969 1.26562 2.08594C2.10938 1.24219 3.23438 0.75 4.5 0.75H30.375C31.2891 0.75 32.0625 1.10156 32.7656 1.73438C33.3984 2.4375 33.75 3.21094 33.75 4.125C33.75 4.47656 33.6094 4.75781 33.3984 4.96875C33.1875 5.17969 32.9062 5.25 32.625 5.25H5.625C5.27344 5.25 4.99219 5.39062 4.78125 5.60156C4.57031 5.8125 4.5 6.09375 4.5 6.375C4.5 6.72656 4.57031 7.00781 4.78125 7.21875C4.99219 7.42969 5.27344 7.5 5.625 7.5H32.4141ZM29.25 22.125C29.8125 22.125 30.375 21.9141 30.7969 21.4922C31.2188 21.0703 31.5 20.5078 31.5 19.875C31.5 19.3125 31.2188 18.75 30.7969 18.3281C30.375 17.9062 29.8125 17.625 29.25 17.625C28.6172 17.625 28.0547 17.9062 27.6328 18.3281C27.2109 18.75 27 19.3125 27 19.875C27 20.5078 27.2109 21.0703 27.6328 21.4922C28.0547 21.9141 28.6172 22.125 29.25 22.125Z" fill="white"/>
</svg>
